<svg xmlns="http://www.w3.org/2000/svg" width="32" height="32" viewBox="0 0 32 32" shape-rendering="crispEdges">
  <rect width="32" height="32" fill="#fff5f0"/>
  <rect x="2" y="3" width="4" height="2" fill="#ff3366" transform="rotate(18 4 4)"/>
  <rect x="14" y="1" width="3" height="3" fill="#33ff99" transform="rotate(-12 15 2)"/>
  <rect x="24" y="5" width="5" height="2" fill="#ffcc00" transform="rotate(32 26 6)"/>
  <rect x="6" y="12" width="2" height="4" fill="#9933ff"/>
  <rect x="18" y="10" width="4" height="2" fill="#00ccff" transform="rotate(45 20 11)"/>
  <rect x="28" y="14" width="2" height="3" fill="#ff6600"/>
  <rect x="1" y="22" width="3" height="2" fill="#ff00aa" transform="rotate(-25 2 23)"/>
  <rect x="11" y="20" width="4" height="3" fill="#66ff00" transform="rotate(8 13 21)"/>
  <rect x="22" y="24" width="3" height="2" fill="#3366ff" transform="rotate(-40 23 25)"/>
  <rect x="8" y="28" width="2" height="2" fill="#ff3399"/>
  <rect x="26" y="28" width="4" height="2" fill="#ccff00" transform="rotate(15 28 29)"/>
</svg>
